<svg xmlns="http://www.w3.org/2000/svg" xmlns:xlink="http://www.w3.org/1999/xlink" width="500" zoomAndPan="magnify" viewBox="0 0 375 374.999991" height="500" preserveAspectRatio="xMidYMid meet" version="1.2"><defs><clipPath id="8bcb2005c2"><path d="M 28.863281 28.863281 L 346.136719 28.863281 L 346.136719 346.136719 L 28.863281 346.136719 Z M 28.863281 28.863281 "/></clipPath><clipPath id="018347f640"><path d="M 187.5 28.863281 C 99.886719 28.863281 28.863281 99.886719 28.863281 187.5 C 28.863281 275.113281 99.886719 346.136719 187.5 346.136719 C 275.113281 346.136719 346.136719 275.113281 346.136719 187.5 C 346.136719 99.886719 275.113281 28.863281 187.5 28.863281 Z M 187.5 28.863281 "/></clipPath><clipPath id="048bda2b71"><path d="M 238 163 L 326.273438 163 L 326.273438 239 L 238 239 Z M 238 163 "/></clipPath><clipPath id="6d3c8b6fb8"><path d="M 268 213 L 310 213 L 310 255.503906 L 268 255.503906 Z M 268 213 "/></clipPath><clipPath id="37ce79ca37"><path d="M 222.023438 138.503906 L 269 138.503906 L 269 239 L 222.023438 239 Z M 222.023438 138.503906 "/></clipPath><clipPath id="528c56180a"><path d="M 110 228.054688 L 237.53125 228.054688 L 237.53125 240.804688 L 110 240.804688 Z M 110 228.054688 "/></clipPath><clipPath id="87e16b1c5d"><path d="M 102 228.054688 L 117 228.054688 L 117 240.804688 L 102 240.804688 Z M 102 228.054688 "/></clipPath><clipPath id="acdb5b0020"><path d="M 96 228.054688 L 109 228.054688 L 109 240.804688 L 96 240.804688 Z M 96 228.054688 "/></clipPath><clipPath id="a57ceffc5c"><path d="M 89 228.054688 L 102 228.054688 L 102 240.804688 L 89 240.804688 Z M 89 228.054688 "/></clipPath><clipPath id="d76072aef9"><path d="M 85 228.054688 L 95 228.054688 L 95 240.804688 L 85 240.804688 Z M 85 228.054688 "/></clipPath><clipPath id="88f4bfbf42"><path d="M 81 228.054688 L 90 228.054688 L 90 240.804688 L 81 240.804688 Z M 81 228.054688 "/></clipPath><clipPath id="bea14122c4"><path d="M 88.125 101.683594 L 215.625 101.683594 L 215.625 178.183594 L 88.125 178.183594 Z M 88.125 101.683594 "/></clipPath></defs><g id="dea5ca8479"><g clip-rule="nonzero" clip-path="url(#8bcb2005c2)"><g clip-rule="nonzero" clip-path="url(#018347f640)"><path style=" stroke:none;fill-rule:nonzero;fill:#004aad;fill-opacity:1;" d="M 28.863281 28.863281 L 346.136719 28.863281 L 346.136719 346.136719 L 28.863281 346.136719 Z M 28.863281 28.863281 "/></g></g><g style="fill:#ffffff;fill-opacity:1;"><g transform="translate(92.838525, 184.290509)"><path style="stroke:none" d="M 14.28125 -11.65625 L 24.6875 -11.65625 L 22.359375 0 L 17.609375 0 L 16.859375 -2.578125 L 16.6875 -2.578125 C 15.988281 -1.773438 15.164062 -1.085938 14.21875 -0.515625 C 13.269531 0.046875 12.03125 0.328125 10.5 0.328125 C 9.320312 0.328125 8.1875 0.132812 7.09375 -0.25 C 6.007812 -0.644531 5.046875 -1.265625 4.203125 -2.109375 C 3.359375 -2.953125 2.679688 -4.054688 2.171875 -5.421875 C 1.660156 -6.796875 1.40625 -8.445312 1.40625 -10.375 C 1.40625 -12.46875 1.726562 -14.453125 2.375 -16.328125 C 3.019531 -18.203125 3.984375 -19.859375 5.265625 -21.296875 C 6.554688 -22.734375 8.164062 -23.863281 10.09375 -24.6875 C 12.019531 -25.519531 14.273438 -25.9375 16.859375 -25.9375 C 18.835938 -25.9375 20.5625 -25.707031 22.03125 -25.25 C 23.507812 -24.800781 24.90625 -24.296875 26.21875 -23.734375 L 24.6875 -15.921875 L 17.890625 -15.921875 C 17.921875 -16.222656 17.960938 -16.570312 18.015625 -16.96875 C 18.066406 -17.375 18.101562 -17.796875 18.125 -18.234375 C 18.15625 -18.679688 18.1875 -19.117188 18.21875 -19.546875 C 18.25 -19.972656 18.265625 -20.347656 18.265625 -20.671875 C 18.265625 -20.890625 18.25 -21.140625 18.21875 -21.421875 C 18.1875 -21.703125 18.117188 -21.972656 18.015625 -22.234375 C 17.910156 -22.503906 17.75 -22.726562 17.53125 -22.90625 C 17.320312 -23.082031 17.015625 -23.171875 16.609375 -23.171875 C 15.910156 -23.171875 15.269531 -22.878906 14.6875 -22.296875 C 14.113281 -21.722656 13.597656 -20.957031 13.140625 -20 C 12.691406 -19.050781 12.300781 -17.972656 11.96875 -16.765625 C 11.632812 -15.566406 11.351562 -14.34375 11.125 -13.09375 C 10.894531 -11.84375 10.71875 -10.617188 10.59375 -9.421875 C 10.476562 -8.234375 10.421875 -7.195312 10.421875 -6.3125 C 10.421875 -6.039062 10.429688 -5.703125 10.453125 -5.296875 C 10.484375 -4.898438 10.570312 -4.507812 10.71875 -4.125 C 10.863281 -3.738281 11.078125 -3.398438 11.359375 -3.109375 C 11.640625 -2.828125 12.050781 -2.6875 12.59375 -2.6875 C 13.476562 -2.6875 14.332031 -3.171875 15.15625 -4.140625 C 15.988281 -5.109375 16.617188 -6.71875 17.046875 -8.96875 L 13.671875 -8.96875 Z M 14.28125 -11.65625 "/></g></g><g style="fill:#ffffff;fill-opacity:1;"><g transform="translate(118.652255, 184.290509)"><path style="stroke:none" d="M 22.28125 0 L 12.875 0 L 12.3125 -6.390625 L 4.859375 -6.390625 L 2.015625 0 L -1.890625 0 L 9.96875 -25.53125 L 19.5 -25.53125 Z M 6.1875 -9.328125 L 12.03125 -9.328125 L 11.09375 -20.265625 Z M 6.1875 -9.328125 "/></g></g><g style="fill:#ffffff;fill-opacity:1;"><g transform="translate(142.85766, 184.290509)"><path style="stroke:none" d="M 25.0625 -19.46875 C 25.0625 -17.882812 24.617188 -16.421875 23.734375 -15.078125 C 22.847656 -13.742188 21.382812 -12.726562 19.34375 -12.03125 L 24.015625 0 L 15.046875 0 L 11.5 -11.140625 L 11.0625 -11.140625 L 8.6875 0 L 0 0 L 5.421875 -25.53125 L 16 -25.53125 C 17.238281 -25.53125 18.40625 -25.457031 19.5 -25.3125 C 20.601562 -25.164062 21.5625 -24.867188 22.375 -24.421875 C 23.195312 -23.984375 23.847656 -23.367188 24.328125 -22.578125 C 24.816406 -21.785156 25.0625 -20.75 25.0625 -19.46875 Z M 13.46875 -13.71875 C 14.164062 -13.71875 14.757812 -13.953125 15.25 -14.421875 C 15.75 -14.890625 16.15625 -15.457031 16.46875 -16.125 C 16.78125 -16.800781 17 -17.519531 17.125 -18.28125 C 17.257812 -19.039062 17.328125 -19.703125 17.328125 -20.265625 C 17.328125 -20.960938 17.207031 -21.554688 16.96875 -22.046875 C 16.726562 -22.546875 16.207031 -22.796875 15.40625 -22.796875 L 13.59375 -22.796875 L 11.578125 -13.71875 Z M 13.46875 -13.71875 "/></g></g><g style="fill:#ffffff;fill-opacity:1;"><g transform="translate(168.309518, 184.290509)"><path style="stroke:none" d="M 10.734375 -9.125 C 10.597656 -8.539062 10.488281 -8.03125 10.40625 -7.59375 C 10.332031 -7.164062 10.296875 -6.765625 10.296875 -6.390625 C 10.296875 -5.453125 10.625 -4.703125 11.28125 -4.140625 C 11.9375 -3.578125 12.910156 -3.296875 14.203125 -3.296875 C 15.140625 -3.296875 15.910156 -3.457031 16.515625 -3.78125 C 17.117188 -4.101562 17.613281 -4.53125 18 -5.0625 C 18.382812 -5.601562 18.691406 -6.222656 18.921875 -6.921875 C 19.148438 -7.617188 19.34375 -8.351562 19.5 -9.125 L 22.921875 -25.53125 L 26.578125 -25.53125 L 23.078125 -9.046875 C 22.816406 -7.765625 22.429688 -6.554688 21.921875 -5.421875 C 21.410156 -4.296875 20.675781 -3.304688 19.71875 -2.453125 C 18.769531 -1.597656 17.546875 -0.921875 16.046875 -0.421875 C 14.546875 0.078125 12.679688 0.328125 10.453125 0.328125 C 7.367188 0.328125 5.085938 -0.171875 3.609375 -1.171875 C 2.140625 -2.179688 1.40625 -3.734375 1.40625 -5.828125 C 1.40625 -6.765625 1.523438 -7.957031 1.765625 -9.40625 C 2.003906 -10.851562 2.3125 -12.421875 2.6875 -14.109375 L 5.140625 -25.53125 L 14.28125 -25.53125 Z M 10.734375 -9.125 "/></g></g><g style="fill:#ffffff;fill-opacity:1;"><g transform="translate(193.640745, 184.290509)"><path style="stroke:none" d="M 0 0 L 5.421875 -25.53125 L 16.25 -25.53125 C 17.90625 -25.53125 19.359375 -25.363281 20.609375 -25.03125 C 21.859375 -24.695312 22.890625 -24.140625 23.703125 -23.359375 C 24.523438 -22.585938 25.144531 -21.570312 25.5625 -20.3125 C 25.976562 -19.050781 26.1875 -17.507812 26.1875 -15.6875 C 26.1875 -13.726562 25.9375 -11.8125 25.4375 -9.9375 C 24.9375 -8.0625 24.109375 -6.382812 22.953125 -4.90625 C 21.804688 -3.425781 20.300781 -2.238281 18.4375 -1.34375 C 16.570312 -0.445312 14.273438 0 11.546875 0 Z M 11.015625 -2.8125 C 11.898438 -2.8125 12.679688 -3.179688 13.359375 -3.921875 C 14.046875 -4.660156 14.640625 -5.597656 15.140625 -6.734375 C 15.640625 -7.878906 16.054688 -9.140625 16.390625 -10.515625 C 16.722656 -11.898438 16.988281 -13.234375 17.1875 -14.515625 C 17.394531 -15.804688 17.546875 -16.957031 17.640625 -17.96875 C 17.734375 -18.988281 17.78125 -19.71875 17.78125 -20.15625 C 17.78125 -20.976562 17.609375 -21.625 17.265625 -22.09375 C 16.929688 -22.5625 16.351562 -22.796875 15.53125 -22.796875 L 13.59375 -22.796875 L 9.296875 -2.8125 Z M 11.015625 -2.8125 "/></g></g><g style="fill:#ffffff;fill-opacity:1;"><g transform="translate(220.258639, 184.290509)"><path style="stroke:none" d="M 22.28125 0 L 12.875 0 L 12.3125 -6.390625 L 4.859375 -6.390625 L 2.015625 0 L -1.890625 0 L 9.96875 -25.53125 L 19.5 -25.53125 Z M 6.1875 -9.328125 L 12.03125 -9.328125 L 11.09375 -20.265625 Z M 6.1875 -9.328125 "/></g></g><g style="fill:#ffffff;fill-opacity:1;"><g transform="translate(44.752674, 220.003022)"><path style="stroke:none" d="M 24.359375 -22.359375 L 17.921875 -22.359375 L 13.15625 0 L 4.515625 0 L 9.28125 -22.359375 L 2.921875 -22.359375 L 3.640625 -25.40625 L 25.046875 -25.40625 Z M 24.359375 -22.359375 "/></g></g><g style="fill:#ffffff;fill-opacity:1;"><g transform="translate(66.950468, 220.003022)"><path style="stroke:none" d="M 24.921875 -19.359375 C 24.921875 -17.785156 24.476562 -16.332031 23.59375 -15 C 22.71875 -13.664062 21.265625 -12.648438 19.234375 -11.953125 L 23.875 0 L 14.953125 0 L 11.4375 -11.078125 L 11 -11.078125 L 8.640625 0 L 0 0 L 5.40625 -25.40625 L 15.921875 -25.40625 C 17.148438 -25.40625 18.3125 -25.328125 19.40625 -25.171875 C 20.5 -25.023438 21.453125 -24.734375 22.265625 -24.296875 C 23.078125 -23.859375 23.722656 -23.242188 24.203125 -22.453125 C 24.679688 -21.671875 24.921875 -20.640625 24.921875 -19.359375 Z M 13.40625 -13.640625 C 14.09375 -13.640625 14.679688 -13.875 15.171875 -14.34375 C 15.671875 -14.8125 16.070312 -15.378906 16.375 -16.046875 C 16.6875 -16.710938 16.90625 -17.421875 17.03125 -18.171875 C 17.164062 -18.929688 17.234375 -19.59375 17.234375 -20.15625 C 17.234375 -20.851562 17.113281 -21.445312 16.875 -21.9375 C 16.632812 -22.4375 16.113281 -22.6875 15.3125 -22.6875 L 13.515625 -22.6875 L 11.515625 -13.640625 Z M 13.40625 -13.640625 "/></g></g><g style="fill:#ffffff;fill-opacity:1;"><g transform="translate(92.267956, 220.003022)"><path style="stroke:none" d="M 22.15625 0 L 12.796875 0 L 12.234375 -6.359375 L 4.84375 -6.359375 L 2 0 L -1.875 0 L 9.921875 -25.40625 L 19.40625 -25.40625 Z M 6.15625 -9.28125 L 11.953125 -9.28125 L 11.046875 -20.15625 Z M 6.15625 -9.28125 "/></g></g><g style="fill:#ffffff;fill-opacity:1;"><g transform="translate(116.345568, 220.003022)"><path style="stroke:none" d="M 11.71875 -14.359375 L 21.59375 -25.4375 L 26.125 -25.4375 L 17.15625 -15.71875 L 23.234375 0 L 14.515625 0 L 11 -11.15625 L 8.640625 0 L 0 0 L 5.40625 -25.40625 L 14.078125 -25.40625 Z M 11.71875 -14.359375 "/></g></g><g style="fill:#ffffff;fill-opacity:1;"><g transform="translate(140.663152, 220.003022)"><path style="stroke:none" d="M 8.640625 0 L 0 0 L 5.40625 -25.40625 L 14.078125 -25.40625 Z M 8.640625 0 "/></g></g><g style="fill:#ffffff;fill-opacity:1;"><g transform="translate(153.701851, 220.003022)"><path style="stroke:none" d="M 21.3125 0 L 11.953125 0 L 7.515625 -18.359375 L 3.59375 0 L 0 0 L 5.40625 -25.40625 L 14.953125 -25.40625 L 19.15625 -6.796875 L 23.125 -25.40625 L 26.796875 -25.40625 Z M 21.3125 0 "/></g></g><g style="fill:#ffffff;fill-opacity:1;"><g transform="translate(179.459296, 220.003022)"><path style="stroke:none" d="M 0 0 L 5.40625 -25.40625 L 16.15625 -25.40625 C 17.8125 -25.40625 19.257812 -25.238281 20.5 -24.90625 C 21.738281 -24.570312 22.765625 -24.015625 23.578125 -23.234375 C 24.390625 -22.460938 25.003906 -21.445312 25.421875 -20.1875 C 25.835938 -18.9375 26.046875 -17.40625 26.046875 -15.59375 C 26.046875 -13.65625 25.796875 -11.75 25.296875 -9.875 C 24.804688 -8.007812 23.988281 -6.34375 22.84375 -4.875 C 21.695312 -3.414062 20.195312 -2.238281 18.34375 -1.34375 C 16.488281 -0.445312 14.203125 0 11.484375 0 Z M 10.953125 -2.796875 C 11.835938 -2.796875 12.617188 -3.160156 13.296875 -3.890625 C 13.972656 -4.628906 14.554688 -5.566406 15.046875 -6.703125 C 15.546875 -7.835938 15.960938 -9.085938 16.296875 -10.453125 C 16.628906 -11.828125 16.894531 -13.15625 17.09375 -14.4375 C 17.300781 -15.71875 17.453125 -16.863281 17.546875 -17.875 C 17.640625 -18.894531 17.6875 -19.617188 17.6875 -20.046875 C 17.6875 -20.867188 17.519531 -21.515625 17.1875 -21.984375 C 16.851562 -22.453125 16.269531 -22.6875 15.4375 -22.6875 L 13.515625 -22.6875 L 9.234375 -2.796875 Z M 10.953125 -2.796875 "/></g></g><g style="fill:#ffffff;fill-opacity:1;"><g transform="translate(205.936665, 220.003022)"><path style="stroke:none" d="M 16.4375 -25.796875 C 18.726562 -25.796875 20.585938 -25.503906 22.015625 -24.921875 C 23.441406 -24.335938 24.570312 -23.429688 25.40625 -22.203125 C 25.9375 -21.367188 26.347656 -20.429688 26.640625 -19.390625 C 26.929688 -18.359375 27.078125 -17.160156 27.078125 -15.796875 C 27.078125 -14.628906 26.96875 -13.457031 26.75 -12.28125 C 26.539062 -11.101562 26.242188 -9.972656 25.859375 -8.890625 C 25.472656 -7.816406 25.003906 -6.804688 24.453125 -5.859375 C 23.910156 -4.910156 23.304688 -4.078125 22.640625 -3.359375 C 21.390625 -1.992188 19.941406 -1.039062 18.296875 -0.5 C 16.660156 0.0390625 14.640625 0.3125 12.234375 0.3125 C 9.921875 0.3125 8.054688 0.0703125 6.640625 -0.40625 C 5.222656 -0.882812 4.101562 -1.65625 3.28125 -2.71875 C 2.695312 -3.46875 2.238281 -4.414062 1.90625 -5.5625 C 1.570312 -6.707031 1.40625 -8.144531 1.40625 -9.875 C 1.40625 -12.832031 1.929688 -15.476562 2.984375 -17.8125 C 4.035156 -20.144531 5.535156 -21.992188 7.484375 -23.359375 C 8.648438 -24.179688 9.953125 -24.789062 11.390625 -25.1875 C 12.835938 -25.59375 14.519531 -25.796875 16.4375 -25.796875 Z M 11.921875 -2.484375 C 12.535156 -2.484375 13.113281 -2.753906 13.65625 -3.296875 C 14.207031 -3.847656 14.710938 -4.582031 15.171875 -5.5 C 15.640625 -6.414062 16.066406 -7.460938 16.453125 -8.640625 C 16.847656 -9.816406 17.175781 -11.03125 17.4375 -12.28125 C 17.707031 -13.53125 17.914062 -14.773438 18.0625 -16.015625 C 18.207031 -17.253906 18.28125 -18.382812 18.28125 -19.40625 C 18.28125 -20.789062 18.140625 -21.742188 17.859375 -22.265625 C 17.578125 -22.785156 17.171875 -23.046875 16.640625 -23.046875 C 16.023438 -23.046875 15.4375 -22.773438 14.875 -22.234375 C 14.320312 -21.703125 13.796875 -20.988281 13.296875 -20.09375 C 12.804688 -19.207031 12.367188 -18.179688 11.984375 -17.015625 C 11.597656 -15.859375 11.265625 -14.664062 10.984375 -13.4375 C 10.703125 -12.207031 10.488281 -10.992188 10.34375 -9.796875 C 10.195312 -8.597656 10.125 -7.492188 10.125 -6.484375 C 10.125 -4.960938 10.289062 -3.914062 10.625 -3.34375 C 10.957031 -2.769531 11.390625 -2.484375 11.921875 -2.484375 Z M 11.921875 -2.484375 "/></g></g><g clip-rule="nonzero" clip-path="url(#048bda2b71)"><path style=" stroke:none;fill-rule:nonzero;fill:#ffffff;fill-opacity:1;" d="M 316.058594 238.605469 L 305.636719 238.605469 C 303.332031 238.605469 301.464844 236.738281 301.464844 234.4375 C 301.464844 232.136719 303.332031 230.265625 305.636719 230.265625 L 312.597656 230.265625 L 318.21875 200.3125 C 318.144531 184.984375 305.050781 171.890625 288.957031 171.890625 L 261.578125 171.890625 L 248.3125 230.265625 L 272.277344 230.265625 C 274.578125 230.265625 276.449219 232.136719 276.449219 234.4375 C 276.449219 236.738281 274.578125 238.605469 272.277344 238.605469 L 243.089844 238.605469 C 241.824219 238.605469 240.621094 238.03125 239.828125 237.039062 C 239.039062 236.054688 238.738281 234.753906 239.019531 233.519531 L 254.183594 166.804688 C 254.617188 164.894531 256.300781 163.550781 258.25 163.550781 L 288.957031 163.550781 C 309.648438 163.550781 326.484375 180.390625 326.484375 201.078125 L 320.15625 235.203125 C 319.789062 237.179688 318.070312 238.605469 316.058594 238.605469 Z M 316.058594 238.605469 "/></g><g clip-rule="nonzero" clip-path="url(#6d3c8b6fb8)"><path style=" stroke:none;fill-rule:nonzero;fill:#ffffff;fill-opacity:1;" d="M 288.957031 255.285156 C 277.464844 255.285156 268.109375 245.9375 268.109375 234.4375 C 268.109375 222.9375 277.464844 213.589844 288.957031 213.589844 C 300.449219 213.589844 309.804688 222.9375 309.804688 234.4375 C 309.804688 245.9375 300.449219 255.285156 288.957031 255.285156 Z M 288.957031 221.929688 C 282.058594 221.929688 276.449219 227.539062 276.449219 234.4375 C 276.449219 241.332031 282.058594 246.945312 288.957031 246.945312 C 295.855469 246.945312 301.464844 241.332031 301.464844 234.4375 C 301.464844 227.539062 295.855469 221.929688 288.957031 221.929688 Z M 288.957031 221.929688 "/></g><g clip-rule="nonzero" clip-path="url(#37ce79ca37)"><path style=" stroke:none;fill-rule:nonzero;fill:#ffffff;fill-opacity:1;" d="M 243.089844 238.605469 L 213.902344 238.605469 C 211.601562 238.605469 209.734375 236.738281 209.734375 234.4375 C 209.734375 232.136719 211.601562 230.265625 213.902344 230.265625 L 239.761719 230.265625 L 258.710938 146.875 L 163.867188 146.875 C 161.566406 146.875 159.695312 145.003906 159.695312 142.703125 C 159.695312 140.402344 161.566406 138.535156 163.867188 138.535156 L 263.9375 138.535156 C 265.207031 138.535156 266.40625 139.109375 267.199219 140.101562 C 267.992188 141.085938 268.292969 142.386719 268.007812 143.621094 L 247.160156 235.355469 C 246.726562 237.265625 245.035156 238.605469 243.089844 238.605469 Z M 243.089844 238.605469 "/></g><g clip-rule="nonzero" clip-path="url(#528c56180a)"><path style=" stroke:none;fill-rule:nonzero;fill:#ffffff;fill-opacity:1;" d="M 230.097656 228.054688 L 237.457031 240.804688 L 117.949219 240.804688 L 110.585938 228.054688 Z M 230.097656 228.054688 "/></g><g clip-rule="nonzero" clip-path="url(#87e16b1c5d)"><path style=" stroke:none;fill-rule:nonzero;fill:#ffffff;fill-opacity:1;" d="M 109.3125 228.054688 L 116.671875 240.804688 L 110.296875 240.804688 L 102.9375 228.054688 Z M 109.3125 228.054688 "/></g><g clip-rule="nonzero" clip-path="url(#acdb5b0020)"><path style=" stroke:none;fill-rule:nonzero;fill:#ffffff;fill-opacity:1;" d="M 101.238281 228.054688 L 108.597656 240.804688 L 103.496094 240.804688 L 96.136719 228.054688 Z M 101.238281 228.054688 "/></g><g clip-rule="nonzero" clip-path="url(#a57ceffc5c)"><path style=" stroke:none;fill-rule:nonzero;fill:#ffffff;fill-opacity:1;" d="M 94.011719 228.054688 L 101.371094 240.804688 L 97.292969 240.804688 L 89.929688 228.054688 Z M 94.011719 228.054688 "/></g><g clip-rule="nonzero" clip-path="url(#d76072aef9)"><path style=" stroke:none;fill-rule:nonzero;fill:#ffffff;fill-opacity:1;" d="M 87.382812 228.054688 L 94.742188 240.804688 L 92.703125 240.804688 L 85.339844 228.054688 Z M 87.382812 228.054688 "/></g><g clip-rule="nonzero" clip-path="url(#88f4bfbf42)"><path style=" stroke:none;fill-rule:nonzero;fill:#ffffff;fill-opacity:1;" d="M 82.367188 228.054688 L 89.726562 240.804688 L 88.707031 240.804688 L 81.347656 228.054688 Z M 82.367188 228.054688 "/></g><g clip-rule="nonzero" clip-path="url(#bea14122c4)"><path style=" stroke:none;fill-rule:nonzero;fill:#ffffff;fill-opacity:1;" d="M 113.222656 133.597656 L 110.902344 129.101562 C 110.902344 129.101562 110.636719 131.6875 111.070312 132.386719 C 111.394531 132.910156 113.222656 133.597656 113.222656 133.597656 Z M 215.386719 101.828125 C 200.308594 113.957031 178.03125 115.753906 146.085938 115.167969 C 129.914062 114.871094 118.101562 118.28125 109.566406 122.867188 C 111.230469 127.148438 115.25 129.113281 115.933594 134.105469 C 116.675781 139.515625 117.863281 144.050781 114.160156 145.273438 C 114.792969 143.464844 112.285156 139.390625 106.671875 138.921875 C 100.558594 138.410156 80.457031 159.199219 91.527344 178.179688 C 89.3125 153.71875 106.660156 150.878906 135.609375 154.5625 C 169.621094 158.890625 180.921875 144.945312 180.921875 144.945312 C 169.0625 150.191406 147.71875 143.460938 147.71875 143.460938 C 179.554688 149.664062 194.230469 129.191406 194.230469 129.191406 C 176.289062 137.359375 153.492188 128.953125 153.492188 128.953125 C 198.125 131.832031 215.386719 101.828125 215.386719 101.828125 Z M 59.300781 85.597656 C 33.644531 66.554688 17.101562 51.53125 12.5625 32.71875 C 12.5625 32.71875 7.914062 67.019531 45.019531 91.996094 C 45.019531 91.996094 21.835938 84.730469 12.609375 67.308594 C 12.609375 67.308594 11.730469 92.484375 40.734375 107.007812 C 40.734375 107.007812 19.71875 99.308594 13.535156 87.910156 C 13.535156 87.910156 17.671875 112.976562 44.675781 118.894531 C 57.570312 121.71875 82.539062 125.890625 86.613281 143.683594 C 86.613281 143.683594 96.902344 113.503906 59.300781 85.597656 "/></g></g></svg>